<svg xmlns="http://www.w3.org/2000/svg" xmlns:xlink="http://www.w3.org/1999/xlink" version="1.1" x="0px" y="0px" viewBox="0 0 164 205" enable-background="new 0 0 164 164" xml:space="preserve"><path fill="#bc8225" fill-rule="evenodd" clip-rule="evenodd" d="M36.061,164H4.35c-2.239,0-4.071-1.832-4.071-4.071V7.583  c0-2.239,1.832-4.071,4.071-4.071h31.711c2.239,0,4.071,1.832,4.071,4.071v152.346C40.131,162.168,38.299,164,36.061,164L36.061,164  z M6.876,11.59v3.5h26.658v-3.5H6.876L6.876,11.59z M6.876,22.285v3.5h26.658v-3.5H6.876L6.876,22.285z M6.876,32.98v3.501h26.658  V32.98H6.876L6.876,32.98z M30.174,158.613c2.239,0,4.071-1.832,4.071-4.07v-13.131c0-2.239-1.832-4.071-4.071-4.071H10.235  c-2.239,0-4.07,1.832-4.07,4.071v13.131c0,2.238,1.832,4.07,4.07,4.07H30.174L30.174,158.613z M84.874,164h-31.71  c-2.239,0-4.071-1.832-4.071-4.071V7.583c0-2.239,1.832-4.071,4.071-4.071h31.71c2.239,0,4.071,1.832,4.071,4.071v152.346  C88.945,162.168,87.113,164,84.874,164L84.874,164z M55.689,11.59v3.5h26.659v-3.5H55.689L55.689,11.59z M55.689,22.285v3.5h26.659  v-3.5H55.689L55.689,22.285z M55.689,32.98v3.501h26.659V32.98H55.689L55.689,32.98z M78.988,158.613  c2.239,0,4.072-1.832,4.072-4.07v-13.131c0-2.239-1.833-4.071-4.072-4.071H59.049c-2.239,0-4.071,1.832-4.071,4.071v13.131  c0,2.238,1.832,4.07,4.071,4.07H78.988L78.988,158.613z M160.037,158.431l-31.229,5.507c-2.205,0.389-4.327-1.098-4.716-3.302  L97.639,10.604c-0.39-2.205,1.097-4.328,3.302-4.716l31.229-5.506c2.204-0.389,4.327,1.097,4.716,3.302l26.454,150.031  C163.729,155.92,162.242,158.042,160.037,158.431L160.037,158.431z M104.83,13.404l0.608,3.447l26.253-4.629l-0.607-3.447  L104.83,13.404L104.83,13.404z M106.688,23.937l0.608,3.448l26.253-4.629l-0.607-3.448L106.688,23.937L106.688,23.937z   M108.545,34.47l0.608,3.448l26.253-4.629l-0.608-3.448L108.545,34.47L108.545,34.47z M153.305,154.149  c2.206-0.39,3.691-2.512,3.302-4.716l-2.279-12.932c-0.389-2.205-2.511-3.691-4.717-3.303l-19.635,3.463  c-2.205,0.389-3.69,2.511-3.303,4.716l2.281,12.931c0.388,2.206,2.511,3.691,4.715,3.303L153.305,154.149z"/></svg>
