<svg xmlns="http://www.w3.org/2000/svg" xmlns:xlink="http://www.w3.org/1999/xlink" version="1.1" x="0px" y="0px" viewBox="0 0 48 60" enable-background="new 0 0 48 48" xml:space="preserve"><g><path fill="#a88041" d="M35.277,45.911c-0.168,0.055-0.725,0.174-1.077-0.008c-0.106-0.055-0.262-0.168-0.369-0.516   c-0.004-0.014-0.015-0.023-0.02-0.035c0.035-0.104,0.064-0.207,0.064-0.322v-2.025c0.305-0.01,0.592-0.152,0.773-0.4   c0.404-0.551,1.006-1.199,1.789-1.926c4.548-4.213,5.248-10.224,5.279-10.52c0.141-2.154-0.297-3.79-1.301-4.861   c-0.854-0.912-2.059-1.374-3.578-1.374c-0.652,0-1.29,0.088-1.85,0.205c0.339-1.532,0.494-3.325,0.564-4.662   c0.562,0.145,1.359,0.055,1.443,0.036c0.042-0.01,0.084-0.021,0.124-0.036c6.007-2.191,3.192-14.55,2.852-15.952   c-0.109-0.448-0.521-0.764-0.983-0.764c-0.03,0-3.242,0.211-3.894,1.143c-0.177,0.254-0.236,0.567-0.167,0.861   c0.022,0.254,0.018,1.221,0.013,2.004c-0.009,1.463-0.02,3.284,0.08,4.311c0.02,0.196,0.031,0.365,0.037,0.51   c-0.897-0.82-2.44-2.365-3.386-3.338c-1.277-1.438-3.438-2.549-4.427-3.009l-0.685-4.146c-0.074-0.454-0.448-0.798-0.906-0.835   l-3.112-0.248c-0.528-0.039-0.981,0.32-1.066,0.834l-0.726,4.396c-0.987,0.459-3.143,1.563-4.396,2.976   c-0.958,0.985-2.478,2.509-3.416,3.36c0.006-0.143,0.018-0.309,0.036-0.5c0.1-1.025,0.089-2.847,0.08-4.31   c-0.005-0.796-0.011-1.783,0.014-2.016c0.058-0.284-0.007-0.618-0.168-0.85C12.25,2.962,9.039,2.751,8.987,2.751   C8.529,2.756,8.133,3.07,8.025,3.515C7.684,4.917,4.87,17.275,10.876,19.467c0.04,0.015,0.082,0.027,0.124,0.036   c0.084,0.021,0.883,0.108,1.443-0.036c0.07,1.337,0.226,3.13,0.564,4.662c-0.56-0.117-1.197-0.205-1.85-0.205   c-1.521,0-2.724,0.462-3.578,1.374c-1.004,1.071-1.441,2.706-1.297,4.904c0.027,0.253,0.728,6.264,5.275,10.477   c0.783,0.727,1.385,1.375,1.789,1.926c0.128,0.174,0.315,0.277,0.518,0.34v2.086c0,0.037,0.017,0.068,0.021,0.104   c-0.054,0.08-0.108,0.158-0.139,0.256c-0.106,0.346-0.261,0.459-0.367,0.514c-0.351,0.182-0.907,0.063-1.076,0.008   c-0.516-0.174-1.085,0.098-1.267,0.615c-0.183,0.521,0.092,1.092,0.612,1.274C11.738,47.832,12.248,48,12.895,48   c0.428,0,0.916-0.073,1.382-0.309c0.186-0.094,0.353-0.213,0.508-0.347c0.156,0.135,0.323,0.254,0.51,0.348   C15.76,47.927,16.248,48,16.675,48c0.648,0,1.158-0.168,1.246-0.199c0.518-0.182,0.788-0.745,0.611-1.265   c-0.178-0.521-0.75-0.801-1.266-0.625c-0.167,0.055-0.725,0.174-1.077-0.008c-0.106-0.055-0.262-0.168-0.369-0.516   c-0.004-0.014-0.015-0.023-0.02-0.035c0.035-0.104,0.064-0.207,0.064-0.322v-2.018h0.385c0.502,0,0.927-0.371,0.991-0.869   c0.031-0.234,0.107-0.484,0.229-0.749c0.452-0.979,0.583-3.067,0.478-4.97c1.367,1.21,3.27,2.578,5.511,3.339   c0.107,0.061,0.229,0.1,0.353,0.117c0.261,0.069,0.538,0.01,0.769-0.132c2.223-0.763,4.109-2.121,5.468-3.323   c-0.106,1.903,0.025,3.992,0.479,4.973c0.12,0.257,0.196,0.507,0.228,0.745c0.064,0.498,0.489,0.869,0.991,0.869h0.129v2.018   c0,0.039,0.018,0.07,0.021,0.107c-0.053,0.078-0.107,0.156-0.137,0.25c-0.107,0.348-0.262,0.461-0.369,0.516   c-0.352,0.182-0.909,0.064-1.078,0.008c-0.52-0.174-1.087,0.098-1.268,0.615c-0.183,0.521,0.092,1.092,0.612,1.274   C29.746,47.832,30.257,48,30.904,48c0.429,0,0.917-0.073,1.383-0.309c0.186-0.094,0.353-0.212,0.509-0.345   c0.155,0.133,0.323,0.252,0.509,0.346C33.771,47.927,34.258,48,34.686,48c0.648,0,1.158-0.168,1.246-0.199   c0.518-0.182,0.788-0.745,0.611-1.265C36.365,46.015,35.794,45.735,35.277,45.911z"/></g></svg>
