<svg xmlns="http://www.w3.org/2000/svg" xmlns:xlink="http://www.w3.org/1999/xlink" version="1.1" x="0px" y="0px" viewBox="0 0 100 125" style="enable-background:new 0 0 100 100;" xml:space="preserve"><g><path fill="#FFF" d="M77.3,50.8c0.7-1.3,1.1-2.8,1.1-4.4c0-5.2-4.2-9.4-9.4-9.4c-2.1,0-4.1,0.7-5.7,1.9C60.1,31.3,52.6,26,43.9,26   c-11.6,0-21,9.4-21,21c0,1.3,0.1,2.6,0.4,3.9c-4.6,0.9-8,5-8,9.9c0,5.5,4.5,10.1,10.1,10.1h50.3c5.5,0,10.1-4.5,10.1-10.1   C85.7,55.8,82,51.7,77.3,50.8z"/></g><!--<text x="0" y="115" fill="#FFF" font-size="5px" font-weight="bold" font-family="'Helvetica Neue', Helvetica, Arial-Unicode, Arial, Sans-serif">Created by Viktor Vorobyev</text><text x="0" y="120" fill="#000000" font-size="5px" font-weight="bold" font-family="'Helvetica Neue', Helvetica, Arial-Unicode, Arial, Sans-serif">from the Noun Project</text>--></svg>
