<svg xmlns="http://www.w3.org/2000/svg" xmlns:xlink="http://www.w3.org/1999/xlink" version="1.1" x="0px" y="0px" viewBox="0 0 100 125" enable-background="new 0 0 100 100" xml:space="preserve"><path fill="#FFF" d="M80.61,44.6c-2.09-12.056-12.269-19.573-24.915-19.573c-0.104,0-0.204,0.016-0.311,0.017  c-7.614,0.091-14.419,3.507-19.055,8.865c-0.992-0.179-2.009-0.287-3.051-0.287c-7.884,0-14.497,6.695-16.437,13.973  C10.257,47.875,5,55.94,5,62.597c0,6.836,5.54,12.376,12.369,12.376h38.015H80.61c6.83,0,14.39-7.309,14.39-14.144  C95,52.873,87.298,44.763,80.61,44.6z"/><!--<text x="0" y="115" fill="#000000" font-size="5px" font-weight="bold" font-family="'Helvetica Neue', Helvetica, Arial-Unicode, Arial, Sans-serif">Created by Valery</text><text x="0" y="120" fill="#000000" font-size="5px" font-weight="bold" font-family="'Helvetica Neue', Helvetica, Arial-Unicode, Arial, Sans-serif">from the Noun Project</text>--></svg>
