<svg xmlns="http://www.w3.org/2000/svg" xmlns:xlink="http://www.w3.org/1999/xlink" version="1.1" x="0px" y="0px" viewBox="0 0 100 125" enable-background="new 0 0 100 100" xml:space="preserve"><g display="none"><path display="inline" fill="#000000" d="M108.792,354.743h-1237.798c-2.084,0-3.789-1.705-3.789-3.789V-836.211   c0-2.084,1.705-3.789,3.789-3.789H108.792c2.084,0,3.789,1.705,3.789,3.789V350.954   C112.582,353.038,110.877,354.743,108.792,354.743z"/></g><g><path fill="none" d="M51.716,86.977c11.689,0,21.199-9.932,21.199-22.14s-9.51-22.14-21.199-22.14s-21.198,9.932-21.198,22.14   S40.027,86.977,51.716,86.977z M51.716,45.901c9.923,0,17.996,8.495,17.996,18.937c0,10.442-8.073,18.937-17.996,18.937   S33.721,75.28,33.721,64.838C33.721,54.396,41.793,45.901,51.716,45.901z"/><path fill="#ce29ce" d="M89.259,81.007h-9.643c-1.28,2.405-2.836,4.625-4.623,6.619h8.672C85.825,85.724,87.711,83.492,89.259,81.007z"/><path fill="#ce29ce" d="M66.083,94.616c4.767-0.128,9.246-1.485,13.161-3.787h-7.551C69.962,92.286,68.082,93.557,66.083,94.616z"/><path fill="#ce29ce" d="M23.009,64.838C23.009,81.469,35.887,95,51.716,95c15.829,0,28.707-13.531,28.707-30.162S67.545,34.675,51.716,34.675   C35.887,34.675,23.009,48.206,23.009,64.838z M51.716,42.698c11.689,0,21.199,9.932,21.199,22.14s-9.51,22.14-21.199,22.14   s-21.198-9.932-21.198-22.14S40.027,42.698,51.716,42.698z"/><path fill="#ce29ce" d="M51.716,83.774c9.923,0,17.996-8.495,17.996-18.937c0-10.442-8.073-18.937-17.996-18.937s-17.995,8.495-17.995,18.937   C33.721,75.28,41.793,83.774,51.716,83.774z"/><path fill="#ce29ce" d="M79.428,38.517c-4.16-2.489-8.966-3.918-14.086-3.918h-0.16c2.182,1.067,4.229,2.385,6.11,3.918H79.428z"/><path fill="#ce29ce" d="M30.156,28.963l0.361,0.668l0.361-0.668c2.696-4.989,7.047-8.993,12.25-11.271l0.859-0.376l-0.859-0.376   c-5.204-2.278-9.553-6.281-12.25-11.272L30.518,5l-0.361,0.668c-2.696,4.99-7.046,8.994-12.25,11.272l-0.859,0.376l0.859,0.376   C23.11,19.971,27.46,23.974,30.156,28.963z"/><path fill="#ce29ce" d="M83.626,64.838c0,1.06-0.053,2.108-0.146,3.144h10.247c0.118-1.105,0.184-2.226,0.184-3.364c0-1.1-0.061-2.186-0.171-3.256   H83.453C83.567,62.504,83.626,63.664,83.626,64.838z"/><path fill="#ce29ce" d="M93.215,71.184H83.04c-0.425,2.298-1.07,4.515-1.922,6.62H91C91.974,75.721,92.72,73.502,93.215,71.184z"/><path fill="#ce29ce" d="M82.983,58.158h10.255c-0.486-2.317-1.221-4.536-2.185-6.619H80.975C81.853,53.643,82.534,55.857,82.983,58.158z"/><path fill="#ce29ce" d="M79.433,48.336h9.892c-1.531-2.481-3.398-4.711-5.538-6.616h-9.094C76.522,43.707,78.116,45.927,79.433,48.336z"/><path fill="#ce29ce" d="M13.476,51.071c1.696-2.967,4.295-5.371,7.388-6.833c-3.094-1.463-5.693-3.866-7.388-6.832   c-1.695,2.966-4.296,5.37-7.388,6.832C9.181,45.7,11.78,48.104,13.476,51.071z"/></g></svg>
