<svg xmlns="http://www.w3.org/2000/svg" xmlns:xlink="http://www.w3.org/1999/xlink" version="1.1" x="0px" y="0px" viewBox="0 0 100 125" enable-background="new 0 0 100 100" xml:space="preserve"><path fill="#ffdb2b" fill-rule="evenodd" clip-rule="evenodd" d="M73.326,47.294c0.74,6.044-1.747,10.306-6.61,11.541  c-4.51,1.146-9.107-1.268-10.784-5.66c-1.902-4.977,0.223-8.965,6.694-12.379c-4.284-4.132-8.54-8.23-12.596-12.142  c-4.095,3.931-8.328,7.998-12.729,12.228c0.802,0.305,1.296,0.479,1.785,0.678c4.399,1.795,6.678,6.758,5.195,11.284  c-1.463,4.495-6.275,7.151-10.888,6.008c-4.53-1.122-7.589-5.676-6.772-10.251c0.205-1.138-0.217-1.465-1.138-1.799  c-5.472-1.977-10.926-4.001-16.394-6c-0.403-0.148-0.831-0.226-1.489-0.401c0.248,0.567,0.359,0.86,0.496,1.135  c4.803,9.555,9.623,19.097,14.377,28.677c0.514,1.034,1.213,1.111,2.161,1.109c16.851-0.012,33.713-0.022,50.563,0.026  c1.363,0.003,2.06-0.43,2.662-1.647c4.694-9.487,9.468-18.939,14.214-28.405c0.124-0.243,0.167-0.524,0.324-1.011  C85.862,42.684,79.574,44.994,73.326,47.294z"/></svg>
