<svg xmlns="http://www.w3.org/2000/svg" xmlns:xlink="http://www.w3.org/1999/xlink" version="1.1" x="0px" y="0px" viewBox="0 0 24 30" enable-background="new 0 0 24 24" xml:space="preserve"><g><circle cx="6.9" cy="7" r="1"/><ellipse fill="#f7c86a" transform="matrix(0.9122 -0.4097 0.4097 0.9122 -3.2241 2.5912)" cx="4.4" cy="8.8" rx="1.6" ry="1"/><path fill="#fcf653" d="M21.2,11.6c-0.2-0.4-0.6-0.8-1.1-0.8c-0.4,0-0.7,0.2-0.9,0.4h0c-0.6,0.8-1.6,1.3-2.8,1.3c-1,0-1.8-0.4-2.5-0.9h0   c0,0,0,0-0.1,0c-1.1,0.9-2.4,1.5-4,1.5c-1.6,0-3.1-0.7-4.2-1.8c-1.4,1-2.3,2.5-2.3,4.3c0,1.6,0.8,3.1,2.1,4.1   c1.7,1.5,4.2,2.4,7,2.4c5.2,0,9.5-3.4,9.5-7.5C21.9,13.5,21.6,12.5,21.2,11.6z"/><path fill="#fffd8b" d="M9.9,2c-2.8,0-5,2.2-5,5s2.2,5,5,5c2.8,0,5-2.2,5-5S12.7,2,9.9,2z M7.9,9c-1.1,0-2-0.9-2-2c0-1.1,0.9-2,2-2   c1.1,0,2,0.9,2,2C9.9,8.1,9,9,7.9,9z"/><path fill="#f7c86a" d="M5.5,6.8C5.2,6.9,4.8,7,4.4,7C3.8,7,3.2,6.8,2.6,6.5c0,0,0,0,0,0c-0.1,0-0.1-0.1-0.2-0.1c-0.2,0-0.4,0.2-0.4,0.4   c0,0,0,0.1,0,0.1c0.3,1,1.2,2,2.9,2.1C5.3,9,5.7,8.9,6,8.8V8C5.7,7.7,5.5,7.3,5.5,6.8z"/></g></svg>
