<svg xmlns="http://www.w3.org/2000/svg" xmlns:xlink="http://www.w3.org/1999/xlink" version="1.1" x="0px" y="0px" viewBox="0 0 100 125" enable-background="new 0 0 100 100" xml:space="preserve"><circle fill="#ee82ff" cx="33.962" cy="60.883" r="3.613"/><circle fill="#f8bafc" cx="57.767" cy="68.959" r="6.801"/><circle fill="#ff42f5" cx="35.662" cy="84.049" r="1.913"/><circle fill="#ee82ff" cx="73.07" cy="84.049" r="3.613"/><path fill="#bdeffc" d="M88.861,70.426h-0.063L65.333,35.865V15.611h0.404c2.112,0,3.826-1.713,3.826-3.826V9.234c0-2.113-1.714-3.826-3.826-3.826  H34.263c-2.113,0-3.826,1.713-3.826,3.826v2.551c0,2.113,1.713,3.826,3.826,3.826h0.528v20.254L11.134,70.744  c-2.209,3.189-3.039,6.717-2.487,10.584v-0.062c0.468,3.781,2.168,6.949,5.101,9.5c0.042,0,0.064,0.021,0.064,0.064  c2.891,2.508,6.229,3.762,10.011,3.762l52.478-0.385c3.826-0.041,7.162-1.316,10.011-3.826h0.062  c2.849-2.592,4.528-5.779,5.038-9.562C91.838,77.035,90.988,73.57,88.861,70.426z M87.778,80.057l-0.034,0.375  c-0.375,2.82-1.642,5.23-3.763,7.166c-2.284,1.959-4.859,2.914-7.744,2.914L23.58,90.896c-2.771,0-5.265-0.934-7.411-2.771  l-1.336-1.146v-0.252c-1.417-1.654-2.284-3.615-2.581-5.85l-0.034-0.342c-0.302-2.791,0.377-5.453,1.972-7.721l13.455-19.797h44.898  l13.233,19.465C87.358,74.795,88.032,77.346,87.778,80.057z"/></svg>
