<svg xmlns="http://www.w3.org/2000/svg" data-name="Layer 1" viewBox="0 0 100 125" x="0px" y="0px"><defs><style>.cls-1{fill:none;}</style></defs><path class="cls-1"  d="M73.36,46.48a5.29,5.29,0,0,0-1.58.51,8.43,8.43,0,0,0-3.87.13c-2-7.42-9.49-12.95-18.5-12.95a21.11,21.11,0,0,0-7.72,1.44,75.5,75.5,0,0,0-7.62-3.69c-.94-.36-.47.83-.47.83a43.9,43.9,0,0,1,2.16,6.52,16.89,16.89,0,0,0-3.62,4.63c-.67,1-1.73,2.24-2.81,2.24a1.4,1.4,0,0,0-1.4,1.4v7a1.4,1.4,0,0,0,1.4,1.4,3.16,3.16,0,0,1,2.51,1.4,17.08,17.08,0,0,0,5.23,6.32,5.51,5.51,0,0,1,.44,1.52c.25.81.59,4,.59,4a1,1,0,0,0,.95.95h4.75a1,1,0,0,0,.95-.95l.22-2a21.53,21.53,0,0,0,9.13,0l.23,2.06a1,1,0,0,0,.95.95H60a1,1,0,0,0,.91-.95s.35-3.23.59-4a4.83,4.83,0,0,1,.61-1.82A15.91,15.91,0,0,0,68.4,50.92a15,15,0,0,0-.11-1.78,6,6,0,0,1,2-1,4.07,4.07,0,0,0-.85,2c-.47,3.67,5.68,4.62,5.21.36a4,4,0,0,0-1.47-2.85,5.37,5.37,0,0,1,1.36-.34c1.9-.24,4,1.77,3.43.58A5.67,5.67,0,0,0,73.36,46.48Zm-37-.13a1.42,1.42,0,1,1,1.42-1.42A1.42,1.42,0,0,1,36.32,46.35ZM56.07,38a1.12,1.12,0,0,1-.33.79,1.4,1.4,0,0,1-1.21.09,17.45,17.45,0,0,0-5.21-.67,16.19,16.19,0,0,0-5.45.78l-.09,0a1.24,1.24,0,0,1-1.43-1,1.12,1.12,0,0,1,.33-.79c.74-.57,2.69-1.16,6.66-1.16s5.68.71,5.92.83C56,37.24,56.09,37.72,56.07,38ZM73.53,50.65c-.11,1.71-1.46,1.46-1.46,1.46s-1.23,0-1.11-1.72a2.92,2.92,0,0,1,1-2A2.46,2.46,0,0,1,73.53,50.65Z"/><circle class="cls-1" cx="49.21" cy="24.13" r="5.16"/><circle fill="#f970f9" cx="36.32" cy="44.93" r="1.42"/><path fill="#f970f9" d="M55.26,36.89c-.24-.12-2-.83-5.92-.83s-5.92.59-6.66,1.16a1.12,1.12,0,0,0-.33.79,1.24,1.24,0,0,0,1.43,1l.09,0a16.19,16.19,0,0,1,5.45-.78,17.45,17.45,0,0,1,5.21.67,1.4,1.4,0,0,0,1.21-.09,1.12,1.12,0,0,0,.33-.79C56.09,37.72,56,37.24,55.26,36.89Z"/><path fill="#f970f9" d="M72,48.35a2.92,2.92,0,0,0-1,2c-.12,1.72,1.11,1.72,1.11,1.72s1.35.25,1.46-1.46A2.46,2.46,0,0,0,72,48.35Z"/><path  fill="#f970f9" d="M50,0a50,50,0,1,0,50,50A50.06,50.06,0,0,0,50,0Zm-.79,19a5.16,5.16,0,1,1-5.16,5.16A5.16,5.16,0,0,1,49.21,19ZM74.56,47.31a5.37,5.37,0,0,0-1.36.34,4,4,0,0,1,1.47,2.85c.47,4.26-5.68,3.31-5.21-.36a4.07,4.07,0,0,1,.85-2,6,6,0,0,0-2,1,15,15,0,0,1,.11,1.78,15.91,15.91,0,0,1-6.27,12.43,4.83,4.83,0,0,0-.61,1.82c-.24.81-.59,4-.59,4a1,1,0,0,1-.91.95H55.26a1,1,0,0,1-.95-.95l-.23-2.06a21.53,21.53,0,0,1-9.13,0l-.22,2a1,1,0,0,1-.95.95H39a1,1,0,0,1-.95-.95s-.34-3.23-.59-4a5.51,5.51,0,0,0-.44-1.52,17.08,17.08,0,0,1-5.23-6.32,3.16,3.16,0,0,0-2.51-1.4,1.4,1.4,0,0,1-1.4-1.4v-7a1.4,1.4,0,0,1,1.4-1.4c1.07,0,2.14-1.25,2.81-2.24a16.89,16.89,0,0,1,3.62-4.63,43.9,43.9,0,0,0-2.16-6.52s-.47-1.19.47-.83a75.5,75.5,0,0,1,7.63,3.69,21.11,21.11,0,0,1,7.72-1.44c9,0,16.55,5.53,18.5,12.95A8.43,8.43,0,0,1,71.78,47a5.29,5.29,0,0,1,1.58-.51A5.67,5.67,0,0,1,78,47.88C78.59,49.08,76.45,47.07,74.56,47.31Z"/></svg>
