<svg xmlns="http://www.w3.org/2000/svg" xmlns:xlink="http://www.w3.org/1999/xlink" xmlns:a="http://ns.adobe.com/AdobeSVGViewerExtensions/3.0/" version="1.1" x="0px" y="0px" viewBox="-5.195 -17.64 100 100" enable-background="new -5.195 -17.64 100 100" xml:space="preserve"><path fill="#18a031" d="M53.075,54.975c20.879,8.143,32.001,1.531,36.534,9.744H0C0,64.719,25.201,44.102,53.075,54.975z M47.938,49.723v-7.754  h15.132l-11.15-13.296h8.686l-10.7-11.827h6.383L44.432,0L32.583,16.847h6.375L28.264,28.673h8.682L25.805,41.969h15.114v6.602  C44.555,48.586,47.938,49.723,47.938,49.723z M19.33,43.334l10.425-12.443h-8.923l7.849-8.678l-4.376-6.16L14.347,30.08h4.27  l-9.25,13.254H19.33z M59.319,30.844l10.297,12.573h8.825l-6.188-8.647h4.888L66.757,10.405l-5.874,12.58l7.154,7.906L59.319,30.844  z M27.622,44.188H20.98v6.939c0,0,3.346-1.434,6.642-1.535V44.188z M69.352,44.188h-5.192l-0.13,9.604  c3.29,1.039,5.322,1.301,5.322,1.301V44.188z"></path></svg>
