<svg xmlns:dc="http://purl.org/dc/elements/1.1/" xmlns:cc="http://creativecommons.org/ns#" xmlns:rdf="http://www.w3.org/1999/02/22-rdf-syntax-ns#" xmlns:svg="http://www.w3.org/2000/svg" xmlns="http://www.w3.org/2000/svg" xmlns:sodipodi="http://sodipodi.sourceforge.net/DTD/sodipodi-0.dtd" xmlns:inkscape="http://www.inkscape.org/namespaces/inkscape" version="1.1" x="0px" y="0px" viewBox="0 0 100 125"><g transform="translate(0,-952.36218)"><path style="text-indent:0;text-transform:none;direction:ltr;block-progression:tb;baseline-shift:baseline;color:#000000;enable-background:accumulate;" d="m 50,963.36216 c -21.52725,0 -39,17.47289 -39,39.00004 0,21.5271 17.47274,39 39,39 21.52726,0 39,-17.4729 39,-39 0,-21.52715 -17.47275,-39.00004 -39,-39.00004 z m 0,2 c 20.44637,0 37,16.55377 37,37.00004 0,20.4462 -16.55364,37 -37,37 -20.44636,0 -37,-16.5538 -37,-37 0,-20.44627 16.55363,-37.00004 37,-37.00004 z m -11,19 0,36.00004 30,-18 -30,-18.00004 z" fill="#fcc9fc" fill-opacity="1" stroke="none" marker="none" visibility="visible" display="inline" overflow="visible"/></g></svg>
