<svg xmlns="http://www.w3.org/2000/svg" xmlns:xlink="http://www.w3.org/1999/xlink" version="1.1" x="0px" y="0px" viewBox="0 0 100 125" enable-background="new 0 0 100 100" xml:space="preserve"><g><path fill="#f9f986" d="M81.901,52.429H18.55c0.231-3.715,2.57-7.198,7.028-6.003c-9.393-2.519-0.273-18.316,6.601-11.442   c-6.874-6.874,8.923-15.994,11.442-6.609c-2.519-9.384,15.729-9.384,13.21,0c2.519-9.384,18.316-0.265,11.442,6.609   c6.874-6.874,15.994,8.923,6.601,11.442C79.331,45.23,81.671,48.714,81.901,52.429z"/><circle fill="#f9f986" cx="25.93" cy="19.167" r="4.197"/><circle fill="#f9f986" cx="74.07" cy="19.167" r="4.197"/><circle fill="#f9f986" cx="50" cy="9.197" r="4.197"/><path fill="#f990a4" d="M17.93,55.649c0.034,0.208,0.079,0.416,0.124,0.634c0.09,0.466,0.226,0.921,0.395,1.357c0,0,0.011,0.01,0.011,0.03   L26.703,95h5.48l-6.946-39.351H17.93z"/><path fill="#f990a4" d="M32.488,55.649c0.011,0.208,0.023,0.416,0.056,0.634c0.056,0.466,0.146,0.921,0.271,1.357c0.023,0,0.023,0.01,0.023,0.03   L37.742,95H43.2l-3.428-39.351H32.488z"/><path fill="#f990a4" d="M46.572,55.649c0,0.208,0,0.416,0.011,0.634c0.011,0.466,0.068,0.921,0.158,1.357c0,0,0,0.01,0.011,0.03L48.41,95h5.469   l-0.011-39.351H46.572z"/><path fill="#f990a4" d="M60.622,56.283c-0.034,0.466-0.011,0.921,0.045,1.357c0,0,0,0.01,0,0.03L59.1,95h5.458l3.405-39.351h-7.296   C60.645,55.857,60.634,56.065,60.622,56.283z"/><path fill="#f990a4" d="M74.763,55.649c-0.045,0.208-0.079,0.416-0.101,0.634c-0.056,0.466-0.09,0.921-0.09,1.357c0.023,0,0.023,0.01,0.023,0.03   L69.779,95h5.458l6.834-39.351H74.763z"/></g></svg>
