<svg xmlns="http://www.w3.org/2000/svg" xmlns:xlink="http://www.w3.org/1999/xlink" version="1.1" x="0px" y="0px" viewBox="0 0 100 125" enable-background="new 0 0 100 100" xml:space="preserve"><path d="M62.24,33.232c0,0-1.803-11.909,8.48-10.827l-0.122-0.07c0,0,1.804,11.911-8.479,10.828L62.24,33.232z M37.759,33.232  c0,0,1.804-11.909-8.479-10.827l0.122-0.07c0,0-1.807,11.911,8.479,10.828L37.759,33.232z M47.892,43.496  c-1.144,0-2.069,0.926-2.069,2.068c0,1.14,0.926,2.066,2.069,2.066c1.141,0,2.066-0.926,2.066-2.066  C49.958,44.422,49.032,43.496,47.892,43.496z M52.229,43.496c-1.141,0-2.066,0.926-2.066,2.068c0,1.14,0.925,2.066,2.066,2.066  c1.144,0,2.069-0.926,2.069-2.066C54.299,44.422,53.373,43.496,52.229,43.496z M84.851,53.796c0.583,1.033,0.922,2.223,0.922,3.495  c0,3.923-3.181,7.102-7.102,7.102c-0.147,0-0.292-0.014-0.436-0.022c0.275,0.758,0.436,1.571,0.436,2.424  c0,3.923-3.182,7.103-7.103,7.103c-1.483,0-2.857-0.455-3.995-1.23c0.071,0.4,0.112,0.811,0.112,1.23  c0,2.557-1.355,4.792-3.383,6.043v9.784v1.229c0,2.102-1.374,3.819-3.056,3.819c-1.679,0-3.054-1.718-3.054-3.819v-1.229v-9.142  c-0.77-0.277-1.478-0.683-2.098-1.192v10.334v1.229c0,2.102-1.375,3.819-3.054,3.819s-3.053-1.718-3.053-3.819v-1.229v-7.607  c-0.473,0.1-0.958,0.169-1.46,0.169c-0.216,0-0.427-0.021-0.638-0.041v7.479v1.229c0,2.102-1.375,3.819-3.056,3.819  c-1.679,0-3.053-1.718-3.053-3.819v-1.229v-9.953c-0.635,0.432-1.34,0.765-2.099,0.973v8.98v1.229c0,2.102-1.374,3.819-3.053,3.819  s-3.053-1.718-3.053-3.819v-1.229V79.592c-1.472-1.1-2.505-2.756-2.784-4.657c-0.583,0.153-1.192,0.245-1.823,0.245  c-3.594,0-6.561-2.677-7.029-6.146c-0.025,0-0.048,0.003-0.074,0.003c-3.921,0-7.102-3.179-7.102-7.102  c0-0.78,0.131-1.53,0.362-2.233c-2.284-1.179-3.851-3.559-3.851-6.31c0-2.475,1.266-4.648,3.181-5.921  c-1.916-1.272-3.181-3.447-3.181-5.92c0-2.419,1.214-4.552,3.062-5.837c-0.826-1.16-1.316-2.576-1.316-4.107  c0-2.723,1.531-5.084,3.777-6.276c-0.189-0.644-0.294-1.323-0.294-2.029c0-3.471,2.486-6.354,5.776-6.976  c0.974-2.76,3.598-4.741,6.689-4.741c0.733,0,1.438,0.112,2.102,0.319c0.938-2.831,3.597-4.871,6.74-4.871  c1.458,0,2.809,0.439,3.937,1.191c1.304-1.547,3.251-2.532,5.433-2.532c1.999,0,3.799,0.828,5.09,2.156  c1.291-1.328,3.092-2.156,5.091-2.156c2.988,0,5.542,1.852,6.59,4.471c1.086-0.673,2.36-1.068,3.731-1.068  c3.925,0,7.103,3.179,7.103,7.104c0,0.476-0.048,0.942-0.138,1.391c0.519-0.119,1.054-0.189,1.608-0.189  c3.924,0,7.102,3.181,7.102,7.104c0,1.533-0.49,2.952-1.319,4.113c3.068,0.787,5.34,3.561,5.34,6.874  c0,2.265-1.063,4.278-2.717,5.579c2.396,1.142,4.056,3.577,4.056,6.409C88.72,50.233,87.144,52.618,84.851,53.796z M85.001,47.142  c0-2.56-1.5-4.761-3.666-5.793c1.494-1.176,2.455-2.996,2.455-5.043c0-2.994-2.053-5.502-4.826-6.213  c0.749-1.05,1.192-2.333,1.192-3.718c0-3.545-2.873-6.421-6.42-6.421c-0.501,0-0.984,0.063-1.453,0.171  c0.081-0.406,0.124-0.827,0.124-1.257c0-3.547-2.872-6.421-6.42-6.421c-1.239,0-2.392,0.357-3.373,0.966  c-0.947-2.368-3.256-4.041-5.957-4.041c-1.807,0-3.435,0.749-4.602,1.949c-1.167-1.2-2.794-1.949-4.601-1.949  c-1.972,0-3.732,0.891-4.911,2.289c-1.02-0.68-2.241-1.077-3.559-1.077c-2.841,0-5.245,1.844-6.093,4.403  c-0.599-0.187-1.237-0.288-1.9-0.288c-2.794,0-5.166,1.791-6.046,4.286c-2.974,0.562-5.221,3.168-5.221,6.306  c0,0.638,0.095,1.252,0.266,1.834c-2.03,1.078-3.414,3.211-3.414,5.673c0,1.384,0.443,2.664,1.19,3.712  c-1.67,1.161-2.768,3.09-2.768,5.276c0,2.235,1.144,4.201,2.875,5.351c-1.731,1.151-2.875,3.116-2.875,5.353  c0,2.486,1.417,4.638,3.48,5.703c-0.208,0.636-0.327,1.313-0.327,2.019c0,3.546,2.876,6.42,6.42,6.42  c0.023,0,0.044-0.003,0.067-0.003c0.422,3.137,3.104,5.556,6.353,5.556c0.57,0,1.121-0.083,1.648-0.222  c0.455,3.099,3.119,5.483,6.345,5.483c1.676,0,3.199-0.649,4.343-1.704c1.152,1.727,3.113,2.865,5.343,2.865  c2.565,0,4.771-1.509,5.803-3.688c1.173,1.533,3.015,2.526,5.094,2.526c3.545,0,6.42-2.875,6.42-6.421  c0-0.38-0.037-0.751-0.102-1.112c1.028,0.7,2.271,1.112,3.611,1.112c3.544,0,6.42-2.875,6.42-6.421c0-0.771-0.145-1.506-0.394-2.19  c0.13,0.008,0.261,0.021,0.394,0.021c3.544,0,6.419-2.874,6.419-6.42c0-1.15-0.306-2.226-0.833-3.159  C83.576,51.789,85.001,49.633,85.001,47.142z M62.24,33.232V58.8c0,6.728-5.455,12.182-12.179,12.182s-12.18-5.454-12.18-12.182  V33.232H62.24z M54.14,63.79h-8.16v2.368h8.16V63.79z M60.437,45.564c0-2.791-2.711-5.052-6.052-5.052  c-1.694,0-3.226,0.582-4.325,1.519c-1.099-0.937-2.63-1.519-4.322-1.519c-3.344,0-6.055,2.262-6.055,5.052  c0,2.79,2.71,5.052,6.055,5.052c1.691,0,3.223-0.583,4.322-1.519c1.099,0.936,2.63,1.519,4.325,1.519  C57.726,50.616,60.437,48.354,60.437,45.564z"/></svg>
