<svg xmlns="http://www.w3.org/2000/svg" xmlns:xlink="http://www.w3.org/1999/xlink" version="1.1" x="0px" y="0px" viewBox="0 0 100 125" enable-background="new 0 0 100 100" xml:space="preserve"><path fill="#aa5858" d="M83.852,77.761c-0.467-0.146-5.514-2.557-12.119-4.83c5.465-3.652,9.072-9.875,9.072-16.928  c0-11.221-9.129-20.349-20.349-20.349c-11.221,0-20.349,9.128-20.349,20.349c0,3.239,0.765,6.301,2.116,9.022  c1.27,0.249,4.56,0.878,9.765,1.761c5.8,0.984,9.635,0.191,12.824-2.646c1.993-1.774,3.176-4.218,3.33-6.882  c0.155-2.662-0.736-5.227-2.51-7.219c-2.854-3.204-7.778-3.491-10.982-0.639c-2.56,2.28-2.887,6.267-0.714,8.709  c1.704,1.912,4.841,2.129,6.714,0.463c0.693-0.617,1.102-1.439,1.148-2.312c0.039-0.715-0.175-1.385-0.586-1.84  c-0.369-0.408-0.958-0.629-1.564-0.625c-0.514,0.014-1.183,0.221-1.617,0.647c-0.102,0.101-0.234,0.164-0.381,0.164  c-0.317,0-0.574-0.286-0.574-0.638c0-0.215,0.088-0.37,0.199-0.52c0.65-0.889,1.568-1.406,2.477-1.484  c1.232-0.105,2.235,0.248,3.025,1.121c0.785,0.867,1.196,2.016,1.127,3.289c-0.076,1.438-0.734,2.777-1.852,3.773  c-2.758,2.456-7.197,2.163-9.692-0.637c-2.933-3.297-2.525-8.648,0.888-11.688c4.072-3.625,10.336-3.261,13.96,0.812  c2.148,2.414,3.229,5.521,3.04,8.745c-0.187,3.227-1.619,6.185-4.032,8.334c-2.716,2.416-5.884,3.576-9.944,3.578  c-1.429,0-2.967-0.144-4.637-0.428c-5.744-0.975-11.878-2.07-12.703-2.18c-4.137-0.551-7.571-3.361-7.682-7.491l1.049-18.057  c0-1.164-0.944-2.109-2.109-2.109c-1.165,0-2.109,0.945-2.109,2.109c0,0,0.616,10.97,0.688,12.355  c0.136,2.629-2.289,4.74-4.952,4.74c-2.735,0-5.165-2.226-4.953-4.953c0.118-1.509,0.246-3.073,0.368-4.538l0.435-7.472  c0-1.164-0.944-2.109-2.109-2.109c-1.166,0-2.109,0.945-2.109,2.109l1.028,17.693c0,0.01-0.001,0.021-0.001,0.031  c0,12.382,7.085,22.469,19.468,22.457c12.495-0.014,47.909,0,47.909,0c1.02,0,1.846-0.826,1.846-1.846S84.824,78.067,83.852,77.761z  "/></svg>
