<svg
    xmlns="http://www.w3.org/2000/svg"
    xmlns:xlink="http://www.w3.org/1999/xlink"
    xmlns:a="http://ns.adobe.com/AdobeSVGViewerExtensions/3.0/"
    version="1.1"
    x="0px"
    y="0px"
    viewBox="-0.649 -14.169 100 125"
    enable-background="new -0.649 -14.169 100 100"
    xml:space="preserve">
    <style type="text/css">
      path{fill-rule:evenodd;clip-rule:evenodd;fill:#fcaa3f;}
        </style>
    <path
        display="none"
        d="M69.422,11.846c-1-0.95-2.099-1.85-3.299-2.699l-0.399,20.592c0,0.4-0.15,0.75-0.45,1.05  c-0.3,0.25-0.649,0.399-1.05,0.399c-0.449,0-0.799-0.15-1.049-0.45c-0.301-0.3-0.45-0.649-0.45-1.049l0.45-22.541  c-2.449-1.549-5.099-2.799-7.848-3.849l-0.5,26.54c0,0.4-0.149,0.75-0.449,1.049c-0.301,0.25-0.65,0.4-1.05,0.4  c-0.45,0-0.8-0.15-1.05-0.45c-0.3-0.3-0.449-0.65-0.449-1.05l0.549-27.489C49.83,1.55,47.13,0.95,44.382,0.6l-0.55,29.238  c0,0.4-0.149,0.75-0.45,1.049c-0.3,0.25-0.649,0.4-1.049,0.4c-0.45,0-0.801-0.15-1.051-0.45c-0.299-0.3-0.449-0.65-0.449-1.05  l0.6-29.538C39.583,0.1,37.634,0,35.685,0c-0.749,0-1.499,0-2.249,0.05l-0.6,29.788c0,0.4-0.15,0.75-0.45,1.049  c-0.3,0.25-0.65,0.4-1.05,0.4c-0.45,0-0.8-0.15-1.049-0.45c-0.3-0.3-0.45-0.65-0.45-1.05l0.6-29.588  c-2.799,0.25-5.498,0.649-8.047,1.199l-0.55,28.439c0,0.4-0.15,0.75-0.45,1.049c-0.3,0.25-0.65,0.4-1.05,0.4  c-0.45,0-0.8-0.15-1.05-0.45c-0.3-0.3-0.45-0.65-0.45-1.05l0.55-27.589c-4.748,1.35-9.046,3.399-12.995,6.048l-0.05,0.05  c2.499,3.948,3.748,8.546,3.748,13.694c0,6.448-1.949,11.945-5.797,16.493c-1.35,1.6-2.749,2.899-4.298,3.949  c1.749,1.949,3.849,3.799,6.397,5.547c3.548,2.449,7.447,4.349,11.695,5.698v4.698h11.096v-4.049h29.988v4.049h11.096v-4.049h17.192  c0.301-0.899,0.451-1.85,0.451-2.898c0-2.449-0.9-4.598-2.65-6.348c-1.748-1.749-3.848-2.599-6.297-2.599  c-1.949,0-3.699,0.55-5.248,1.699v-4.849c2.199-3.448,3.299-7.146,3.299-11.195c0-5.748-2.25-10.896-6.697-15.394  C70.022,12.445,69.722,12.146,69.422,11.846L69.422,11.846z M7.497,43.583c-0.5-0.45-0.75-1-0.75-1.649  c0-0.65,0.25-1.199,0.75-1.649c0.5-0.45,1.1-0.7,1.799-0.7s1.299,0.25,1.799,0.7c0.5,0.45,0.75,0.999,0.75,1.649  c0,0.649-0.25,1.199-0.75,1.649c-0.5,0.45-1.1,0.7-1.799,0.7S7.997,44.033,7.497,43.583L7.497,43.583z"/><path
        d="M81.376,30.46c0-0.892-0.059-1.723-0.118-2.497c-0.655-3.983-2.199-7.369-4.518-10.163c-2.971-3.507-6.537-5.23-10.757-5.23  c-2.733,0-5.17,0.773-7.369,2.26c-0.179,0.058-0.297,0.118-0.475,0.058c-0.178-0.058-0.298-0.118-0.356-0.237  c-0.119-0.179-0.179-0.297-0.119-0.476c0.059-0.179,0.119-0.297,0.298-0.355c2.376-1.605,5.051-2.439,8.021-2.439  c4.517,0,8.38,1.902,11.649,5.646c1.128,1.368,2.139,2.912,2.912,4.578h17.59c-1.365-4.338-3.684-8.261-7.071-11.708  C85.417,4.073,78.643,1.161,70.68,1.161c-7.905,0-14.681,2.912-20.326,8.737c-5.646,5.764-8.438,12.776-8.438,21.037  c0,0.297,0,0.594,0.059,0.892c0,0,0,0,0.06,0.061l-0.06,0.118c-0.059-0.06-0.059-0.06-0.118-0.06  c-0.179-0.177-0.416-0.355-0.655-0.534c-0.058-0.058-0.118-0.058-0.177-0.119c-1.724-0.832-3.506-1.247-5.468-1.247  c-2.198,0-4.219,0.534-6.062,1.605c-0.534,0.295-1.01,0.592-1.485,1.01c-0.178,0.058-0.297,0.176-0.356,0.237h-2.021  c0-0.061,0-0.179,0-0.297c0-1.723-0.357-3.268-1.01-4.754h2.733v-5.23h-7.487c-1.784-1.129-3.804-1.666-6.003-1.724  c-3.268-0.06-6.062,0.95-8.379,3.149c-2.317,2.199-3.446,4.873-3.446,8.024c0,2.852,0.891,5.348,2.733,7.427h9.924v19.612  l1.308,3.092h2.317l2.2-4.993c0.653,3.388,2.021,6.358,3.983,9.034c0.177,0.236,0.355,0.474,0.534,0.713h-4.992v6.893h23.832v-4.575  c0.95-0.831,1.841-1.842,2.733-3.03c3.031-4.102,4.577-9.093,4.577-14.978c0-1.247-0.06-2.376-0.178-3.507  c3.268,3.03,7.131,4.517,11.469,4.517c5.23,0,9.688-2.139,13.371-6.419C79.535,41.633,81.376,36.461,81.376,30.46L81.376,30.46z   M12.557,26.538c0.356,0.355,0.536,0.771,0.536,1.247s-0.179,0.892-0.536,1.189c-0.297,0.358-0.713,0.534-1.189,0.534  c-0.475,0-0.891-0.176-1.247-0.534c-0.297-0.297-0.476-0.713-0.476-1.189s0.179-0.892,0.476-1.247  c0.356-0.297,0.772-0.476,1.247-0.476C11.844,26.062,12.259,26.24,12.557,26.538L12.557,26.538z"/>
</svg>
