<svg xmlns="http://www.w3.org/2000/svg" xmlns:xlink="http://www.w3.org/1999/xlink" version="1.2" baseProfile="tiny" x="0px" y="0px" viewBox="0 0 128 160" xml:space="preserve"><path fill="none" stroke="#707070" stroke-width="4" stroke-miterlimit="10" d="M94,117h24c4.4,0,8-3.6,8-8V19c0-4.4-3.6-8-8-8H94  c-4.4,0-8,3.6-8,8v90C86,113.4,89.6,117,94,117z"/><g><path fill="#707070" d="M86,58v51c0,4.4,3.6,8,8,8h24c4.4,0,8-3.6,8-8V58H86z M98,92c-3.3,0-6-2.7-6-6s2.7-6,6-6s6,2.7,6,6S101.3,92,98,92z M98,76   c-3.3,0-6-2.7-6-6s2.7-6,6-6s6,2.7,6,6S101.3,76,98,76z M120,86c0,3.3-2.7,6-6,6s-6-2.7-6-6V70c0-3.3,2.7-6,6-6s6,2.7,6,6V86z"/><path fill="#707070" d="M126,54V19c0-4.4-3.6-8-8-8H94c-4.4,0-8,3.6-8,8v35H126z M114,36c3.3,0,6,2.7,6,6s-2.7,6-6,6s-6-2.7-6-6S110.7,36,114,36z    M98,36c3.3,0,6,2.7,6,6s-2.7,6-6,6s-6-2.7-6-6S94.7,36,98,36z"/></g></svg>
