<svg xmlns="http://www.w3.org/2000/svg" xmlns:xlink="http://www.w3.org/1999/xlink" version="1.1" x="0px" y="0px" viewBox="0 0 100 125" style="enable-background:new 0 0 100 100;" xml:space="preserve"><g><path fill="#ce29ce" d="M50.4,5c-24.9,0-45,20.1-45,45c0,1.6,0.1,3.1,0.2,4.6c0.1,0.7,0.2,1.4,0.3,2.1c0,0.2,0.1,0.5,0.1,0.7   c0.1,0.5,0.2,0.9,0.2,1.4c0.1,0.3,0.1,0.6,0.2,0.9c0.1,0.4,0.2,0.8,0.3,1.2c0.1,0.3,0.2,0.6,0.3,0.9c0.1,0.4,0.2,0.7,0.3,1.1   c0.1,0.3,0.2,0.7,0.3,1c0.1,0.3,0.2,0.7,0.3,1c0.1,0.3,0.2,0.7,0.4,1c0.1,0.3,0.2,0.6,0.3,0.9c0.1,0.4,0.3,0.7,0.4,1.1   c0.1,0.2,0.2,0.5,0.3,0.7c0.2,0.4,0.4,0.8,0.5,1.2c0.1,0.2,0.2,0.3,0.3,0.5c1.1,2.2,2.4,4.3,3.8,6.3c0,0,0,0,0,0   c0.4,0.5,0.7,1,1.1,1.4c0,0.1,0.1,0.1,0.1,0.2c0.4,0.4,0.7,0.9,1.1,1.3c0.1,0.1,0.1,0.1,0.2,0.2c0.4,0.4,0.8,0.9,1.2,1.3   c0.1,0.1,0.1,0.1,0.2,0.2c0.4,0.4,0.8,0.8,1.2,1.2c0,0,0,0,0.1,0.1c0,0,0,0,0,0C27.2,90.2,38.2,95,50.4,95s23.1-4.8,31.2-12.6   c0,0,0,0,0,0c0,0,0,0,0.1-0.1c0.4-0.4,0.8-0.8,1.2-1.2c0.1-0.1,0.1-0.1,0.2-0.2c0.4-0.4,0.8-0.8,1.2-1.3c0.1-0.1,0.1-0.1,0.2-0.2   c0.4-0.4,0.7-0.9,1.1-1.3c0-0.1,0.1-0.1,0.1-0.2c0.4-0.5,0.7-0.9,1.1-1.4c0,0,0,0,0,0c1.4-2,2.7-4.1,3.8-6.2   c0.1-0.2,0.2-0.3,0.3-0.5c0.2-0.4,0.4-0.8,0.5-1.2c0.1-0.2,0.2-0.5,0.3-0.7c0.2-0.4,0.3-0.7,0.4-1.1c0.1-0.3,0.2-0.6,0.3-0.9   c0.1-0.3,0.3-0.7,0.4-1c0.1-0.3,0.2-0.7,0.3-1c0.1-0.3,0.2-0.7,0.3-1c0.1-0.4,0.2-0.7,0.3-1.1c0.1-0.3,0.2-0.6,0.3-0.9   c0.1-0.4,0.2-0.8,0.3-1.2c0.1-0.3,0.1-0.6,0.2-0.9c0.1-0.5,0.2-0.9,0.2-1.4c0-0.2,0.1-0.5,0.1-0.7c0.1-0.7,0.2-1.4,0.3-2.1   c0.2-1.5,0.2-3,0.2-4.6C95.4,25.1,75.2,5,50.4,5z M50.4,89c-10.6,0-20.2-4.2-27.2-11.1c2.5-2.2,5.4-3.8,8.6-4.8l7.1-2.1   c2.4-0.7,3.7-3.3,2.9-5.7c-0.2-0.5-0.4-0.9-0.8-1.3l-4.8-5.4c-3.5-4-5.1-9.3-4.3-14.6l1.1-7.3c0.8-4.9,3.5-9.2,7.6-12   c5.9-4,13.6-4.1,19.6-0.2l0.1,0c4.5,2.9,7.5,7.6,8.1,12.9l0.8,7c0.6,5.1-1,10.1-4.4,13.9L59.7,64c-0.3,0.4-0.6,0.9-0.8,1.3   c-0.8,2.4,0.5,5,2.9,5.7l7.1,2.1c3.2,1,6.2,2.6,8.6,4.8C70.5,84.8,60.9,89,50.4,89z"/></g></svg>
