<svg xmlns="http://www.w3.org/2000/svg" xmlns:xlink="http://www.w3.org/1999/xlink" version="1.1" x="0px" y="0px" viewBox="0 0 24 30" style="enable-background:new 0 0 24 24;" xml:space="preserve"><g><path fill="#5f81fc" d="M12,0C5.373,0,0,5.373,0,12c0,6.628,5.373,12,12,12s12-5.372,12-12C24,5.373,18.627,0,12,0z M14.822,21.588   c-0.705,0.208-1.443,0.334-2.204,0.381c0.061-0.707,1.71-3.446,0.429-4.066c-1.476-0.714-1.476-2.571-1.332-3.903   c0.143-1.333-2-1.189-5.664-3.379c-1.826-1.09-2.519-3.776-1.672-5.079c1.828-2.154,4.549-3.529,7.587-3.539   c0.424,0.622,2.028,1.365,2.604,1.859c0.666,0.571-1.238,1.38-2.523,2.142c-1.285,0.762-1.237,3.284-1.57,2.856   c-0.333-0.429-2.523-3.237-2.951-0.287c-0.428,2.952,0.952,1.476,1.477,1.38c0.522-0.095,0.475,0.429,0.285,0.905   c-0.191,0.475,2.189,1.142,2.951,1.237c0.762,0.095,1.57-0.952,2.666,0c1.094,0.951,3.807,1.809,5.14,2.142   c1.333,0.333,0.048,2.046-0.429,3.332C19.258,18.534,17.022,20.599,14.822,21.588z"/></g><text x="0" y="39" fill="#000000" font-size="5px" font-weight="bold" font-family="'Helvetica Neue', Helvetica, Arial-Unicode, Arial, Sans-serif">Created by Hea Poh Lin</text><text x="0" y="44" fill="#000000" font-size="5px" font-weight="bold" font-family="'Helvetica Neue', Helvetica, Arial-Unicode, Arial, Sans-serif">from the Noun Project</text></svg>
