<svg xmlns="http://www.w3.org/2000/svg" data-name="Ebene 1" viewBox="0 0 100 125" x="0px" y="0px"><path fill="#FB797E" d="M50,15A35,35,0,1,1,15,50,35,35,0,0,1,50,15m0-5A40,40,0,1,0,90,50,40,40,0,0,0,50,10Z"/><path fill="#FB797E" d="M61,67.5H39a2.5,2.5,0,0,1,0-5H61a2.5,2.5,0,0,1,0,5Z"/><path fill="#FB797E" d="M38.57,39l1.2-1.2a2.5,2.5,0,0,0-3.54-3.54L35,35.5l-1.2-1.2a2.5,2.5,0,1,0-3.54,3.54L31.5,39l-1.2,1.2a2.5,2.5,0,1,0,3.54,3.54l1.2-1.2,1.2,1.2a2.5,2.5,0,0,0,3.54-3.54Z"/><path fill="#FB797E" d="M68.54,39l1.2-1.2A2.5,2.5,0,0,0,66.2,34.3L65,35.5l-1.2-1.2a2.5,2.5,0,0,0-3.54,3.54l1.2,1.2-1.2,1.2a2.5,2.5,0,1,0,3.54,3.54l1.2-1.2,1.2,1.2a2.5,2.5,0,0,0,3.54-3.54Z"/></svg>
